<?xml version="1.0" encoding="iso-8859-1"?>
<!-- Generator: Adobe Illustrator 19.0.0, SVG Export Plug-In . SVG Version: 6.00 Build 0)  -->
<svg version="1.1" id="Capa_1" xmlns="http://www.w3.org/2000/svg" xmlns:xlink="http://www.w3.org/1999/xlink" x="0px" y="0px"
	 viewBox="0 0 512.001 512.001" style="enable-background:new 0 0 512.001 512.001;" xml:space="preserve">
<path style="fill:#E8E8E8;" d="M34.532,359.921L331.427,63.027c8.878-8.878,23.272-8.878,32.15,0l113.271,113.271
	c8.878,8.878,8.878,23.272,0,32.149L179.953,505.342c-8.878,8.878-23.272,8.878-32.149,0L34.532,392.071V359.921z"/>
<g>
	<path style="fill:#404B58;" d="M298.868,254.649c-1.919,0-3.839-0.732-5.304-2.197l-36.507-36.506
		c-2.929-2.929-2.929-7.677,0-10.607c2.93-2.929,7.678-2.929,10.607,0l36.507,36.506c2.929,2.929,2.929,7.677,0,10.606
		C302.707,253.917,300.787,254.649,298.868,254.649z"/>
	<path style="fill:#404B58;" d="M180.443,373.074c-1.919,0-3.839-0.732-5.303-2.197l-36.506-36.506
		c-2.929-2.929-2.929-7.678,0-10.607s7.678-2.929,10.606,0l36.506,36.506c2.929,2.929,2.929,7.678,0,10.606
		C184.282,372.342,182.362,373.074,180.443,373.074z"/>
</g>
<path style="fill:#79C6E4;" d="M343.783,258.857l-62.766-62.766c-7.915-7.915-7.915-20.749,0-28.664l52.152-52.152
	c7.915-7.915,20.749-7.915,28.665,0L424.6,178.04c7.915,7.915,7.915,20.749,0,28.664l-52.152,52.152
	C364.532,266.772,351.698,266.772,343.783,258.857z"/>
<path style="opacity:0.3;fill:#FFFFFF;enable-background:new    ;" d="M343.783,258.857l-62.766-62.766
	c-7.915-7.915-7.915-20.749,0-28.664l52.152-52.152c7.915-7.915,20.749-7.915,28.665,0L424.6,178.04
	c7.915,7.915,7.915,20.749,0,28.664l-52.152,52.152C364.532,266.772,351.698,266.772,343.783,258.857z"/>
<path style="fill:#79C6E4;" d="M225.358,377.282l-62.766-62.766c-7.915-7.915-7.915-20.749,0-28.664l52.152-52.152
	c7.915-7.915,20.749-7.915,28.664,0l62.766,62.766c7.915,7.915,7.915,20.749,0,28.664l-52.152,52.152
	C246.107,385.198,233.273,385.198,225.358,377.282z"/>
<polygon style="opacity:0.1;enable-background:new    ;" points="50.113,344.341 50.113,407.651 131.131,488.669 196.625,488.669 
	255.768,429.526 255.768,138.686 "/>
<path style="fill:#E8E8E8;" d="M211.416,465.339H51.227c-12.555,0-22.733-10.178-22.733-22.733V22.733
	C28.494,10.178,38.672,0,51.227,0h160.189c12.555,0,22.733,10.178,22.733,22.733v419.872
	C234.149,455.161,223.972,465.339,211.416,465.339z"/>
<g>
	<path style="fill:#404B58;" d="M135.665,183.45H84.038c-4.142,0-7.5-3.358-7.5-7.5s3.358-7.5,7.5-7.5h51.627
		c4.142,0,7.5,3.358,7.5,7.5C143.165,180.092,139.808,183.45,135.665,183.45z"/>
	<path style="fill:#404B58;" d="M135.665,350.929H84.038c-4.142,0-7.5-3.358-7.5-7.5s3.358-7.5,7.5-7.5h51.627
		c4.142,0,7.5,3.358,7.5,7.5C143.165,347.571,139.808,350.929,135.665,350.929z"/>
</g>
<path style="fill:#ED718B;" d="M175.704,152.469H86.94c-11.194,0-20.269-9.075-20.269-20.269V58.446
	c0-11.194,9.075-20.269,20.269-20.269h88.764c11.194,0,20.269,9.075,20.269,20.269V132.2
	C195.973,143.394,186.898,152.469,175.704,152.469z"/>
<path style="opacity:0.3;fill:#FFFFFF;enable-background:new    ;" d="M175.704,152.469H86.94c-11.194,0-20.269-9.075-20.269-20.269
	V58.446c0-11.194,9.075-20.269,20.269-20.269h88.764c11.194,0,20.269,9.075,20.269,20.269V132.2
	C195.973,143.394,186.898,152.469,175.704,152.469z"/>
<path style="fill:#ED718B;" d="M175.704,319.948H86.94c-11.194,0-20.269-9.075-20.269-20.269v-73.754
	c0-11.194,9.075-20.269,20.269-20.269h88.764c11.194,0,20.269,9.075,20.269,20.269v73.754
	C195.973,310.873,186.898,319.948,175.704,319.948z"/>
<circle style="opacity:0.1;enable-background:new    ;" cx="137.67" cy="414.9" r="25.814"/>
<circle style="fill:#FFFFFF;" cx="131.32" cy="408.55" r="25.814"/>
<g>
</g>
<g>
</g>
<g>
</g>
<g>
</g>
<g>
</g>
<g>
</g>
<g>
</g>
<g>
</g>
<g>
</g>
<g>
</g>
<g>
</g>
<g>
</g>
<g>
</g>
<g>
</g>
<g>
</g>
</svg>
