<?xml version="1.0" encoding="iso-8859-1"?>
<!-- Generator: Adobe Illustrator 19.0.0, SVG Export Plug-In . SVG Version: 6.00 Build 0)  -->
<svg version="1.1" id="Capa_1" xmlns="http://www.w3.org/2000/svg" xmlns:xlink="http://www.w3.org/1999/xlink" x="0px" y="0px"
	 viewBox="0 0 511.999 511.999" style="enable-background:new 0 0 511.999 511.999;" xml:space="preserve">
<path style="fill:#9DD3EC;" d="M487.621,397.698c-1.774,0-3.576-0.327-5.325-1.019c-7.445-2.943-11.094-11.364-8.151-18.809
	c10.324-26.115,4.087-55.739-15.89-75.47c-27.422-27.084-71.764-26.809-98.846,0.613c-5.624,5.695-14.802,5.753-20.499,0.127
	c-5.696-5.626-5.752-14.803-0.127-20.499c38.316-38.793,101.049-39.183,139.844-0.867c28.259,27.91,37.082,69.814,22.479,106.754
	C498.854,394.223,493.395,397.697,487.621,397.698z"/>
<path style="fill:#56B4DD;" d="M202.223,176.836c-3.71,0-7.419-1.415-10.25-4.246c-5.661-5.661-5.661-14.839,0-20.499
	c27.252-27.253,27.252-71.596,0-98.849C168.306,29.575,131.056,26,103.401,44.743c-6.626,4.491-15.64,2.761-20.131-3.866
	c-4.491-6.626-2.761-15.64,3.866-20.131C126.28-5.785,178.991-0.739,212.473,32.743c38.556,38.556,38.556,101.291,0,139.847
	C209.642,175.421,205.933,176.836,202.223,176.836z"/>
<path style="fill:#F5A85B;" d="M310.432,250.78c-2.765,0-5.56-0.79-8.033-2.439c-6.659-4.443-8.455-13.444-4.012-20.103
	c21.654-32.453,57.884-51.71,96.811-51.525c29.74,0.144,57.943,11.548,79.413,32.112c5.781,5.537,5.979,14.713,0.442,20.494
	c-5.537,5.781-14.713,5.979-20.494,0.442c-16.086-15.406-37.217-23.951-59.501-24.059c-0.141-0.001-0.286-0.001-0.426-0.001
	c-29.039,0-55.975,14.416-72.13,38.627C319.709,248.515,315.114,250.78,310.432,250.78z"/>
<path style="fill:#9DD3EC;" d="M265.837,204.986c-2.999,0-6.024-0.927-8.619-2.85c-6.432-4.766-7.782-13.845-3.016-20.276
	c18.315-24.715,27.688-54.081,27.108-84.923c-0.351-18.688-4.349-36.74-11.882-53.656c-3.257-7.313,0.032-15.882,7.345-19.139
	c7.312-3.256,15.882,0.032,19.139,7.345c9.12,20.479,13.959,42.316,14.384,64.904c0.702,37.3-10.64,72.823-32.8,102.728
	C274.652,202.957,270.273,204.986,265.837,204.986z"/>
<path style="fill:#56B4DD;" d="M494.811,163.256c-1.224,0-2.469-0.156-3.709-0.483c-38.862-10.258-78.485-12.029-117.766-5.265
	c-7.886,1.355-15.386-3.936-16.745-11.825s3.936-15.387,11.825-16.745c43.406-7.475,87.172-5.522,130.084,5.804
	c7.74,2.043,12.359,9.974,10.316,17.715C507.101,158.957,501.233,163.256,494.811,163.256z"/>
<path style="fill:#F5A85B;" d="M358.531,108.931c-1.499,0-3.023-0.234-4.525-0.727c-7.606-2.498-11.747-10.688-9.249-18.294
	c7.496-22.828,6.452-47.601-2.942-69.752c-3.125-7.37,0.316-15.879,7.686-19.004c7.371-3.126,15.879,0.316,19.004,7.686
	c12.134,28.614,13.481,60.617,3.795,90.115C370.296,105.059,364.624,108.931,358.531,108.931z"/>
<path style="fill:#9DD3EC;" d="M315.952,414.081L24.876,511.106c-13.155,4.385-25.669-8.13-21.284-21.284l97.025-291.076
	c7.623-22.868,36.647-29.72,53.692-12.675l174.317,174.318C345.672,377.434,338.82,406.458,315.952,414.081z"/>
<path style="fill:#56B4DD;" d="M100.617,198.747L58.58,324.857v175.015l80.165-26.722V177.399
	C123.302,173.837,106.207,181.978,100.617,198.747z M197.246,453.65l80.165-26.722V309.173l-80.165-80.165V453.65z"/>
<path style="opacity:0.1;enable-background:new    ;" d="M100.617,198.747L75.36,274.518l164.82,164.82l75.771-25.257
	c22.868-7.623,29.72-36.647,12.675-53.692L154.309,186.072C137.264,169.027,108.24,175.878,100.617,198.747z"/>
<path style="fill:#E883AB;" d="M100.82,178.459c-4.736,4.736-8.231,10.419-10.389,16.892l-9.901,29.702
	c-3.059,9.176-0.67,19.292,6.169,26.132l176.814,176.814c6.839,6.839,16.956,9.227,26.132,6.169l29.702-9.901
	c6.474-2.158,12.157-5.653,16.893-10.389c16.835-16.835,16.825-44.236-0.021-61.082L161.901,178.48
	C145.055,161.634,117.654,161.625,100.82,178.459z"/>
<g>
	<path style="fill:#4A5058;" d="M154.547,254.958c-1.92,0-3.839-0.732-5.303-2.197c-2.929-2.929-2.929-7.678,0-10.606l9.354-9.353
		c2.929-2.929,7.678-2.929,10.606,0c2.929,2.929,2.929,7.678,0,10.606l-9.354,9.353
		C158.386,254.226,156.467,254.958,154.547,254.958z"/>
	<path style="fill:#4A5058;" d="M267.24,367.651c-1.919,0-3.839-0.732-5.303-2.197c-2.929-2.929-2.929-7.677,0-10.607l9.353-9.353
		c2.929-2.929,7.678-2.93,10.607,0c2.929,2.929,2.929,7.677,0,10.607l-9.353,9.353C271.079,366.918,269.16,367.651,267.24,367.651z"
		/>
	<path style="fill:#4A5058;" d="M223.416,326.641c-9.354,0-18.357-3.7-25.008-10.351c-7.226-7.226-10.968-17.227-10.267-27.439
		c0.284-4.132,3.858-7.264,7.996-6.969c4.133,0.284,7.253,3.863,6.969,7.996c-0.404,5.886,1.75,11.648,5.909,15.807
		s9.916,6.316,15.807,5.909c4.122-0.275,7.712,2.836,7.996,6.969c0.284,4.132-2.836,7.712-6.969,7.996
		C225.036,326.613,224.225,326.641,223.416,326.641z"/>
</g>
<g>
</g>
<g>
</g>
<g>
</g>
<g>
</g>
<g>
</g>
<g>
</g>
<g>
</g>
<g>
</g>
<g>
</g>
<g>
</g>
<g>
</g>
<g>
</g>
<g>
</g>
<g>
</g>
<g>
</g>
</svg>
