<?xml version="1.0" encoding="iso-8859-1"?>
<!-- Generator: Adobe Illustrator 19.0.0, SVG Export Plug-In . SVG Version: 6.00 Build 0)  -->
<svg version="1.1" id="Capa_1" xmlns="http://www.w3.org/2000/svg" xmlns:xlink="http://www.w3.org/1999/xlink" x="0px" y="0px"
	 viewBox="0 0 511.999 511.999" style="enable-background:new 0 0 511.999 511.999;" xml:space="preserve">
<path style="fill:#F5A85B;" d="M176.375,351.239c-28.705-28.705-75.245-28.705-103.95,0c-0.03,0.03-0.06,0.06-0.089,0.09
	c-5.283,5.301-6.396,13.401-3.15,20.146c14.262,29.633,9.116,66.263-15.455,90.834c-2.986,2.986-6.153,5.678-9.463,8.084
	c-4.643,3.375-5.426,10.102-1.381,14.175c0.027,0.027,0.053,0.054,0.08,0.081c28.705,28.705,104.704-0.754,133.409-29.459
	C205.08,426.484,205.08,379.944,176.375,351.239z"/>
<path style="fill:#F3DE6A;" d="M163.448,353.628c-17.745-11.709-41.623-6.816-53.332,10.929c-0.012,0.018-0.024,0.037-0.036,0.055
	c-2.153,3.276-1.873,7.548,0.502,10.667c10.433,13.704,11.644,33.038,1.621,48.228c-1.218,1.846-2.56,3.56-4.005,5.143
	c-2.027,2.22-1.722,5.753,0.782,7.418c0.016,0.011,0.033,0.022,0.05,0.033c17.745,11.709,53.64-11.396,65.349-29.141
	C186.087,389.215,181.194,365.337,163.448,353.628z"/>
<path style="fill:#56B4DD;" d="M435.647,234.515L293.099,91.967L99.254,285.811c-7.722,7.722-7.722,20.243,0,27.965l114.583,114.583
	c7.722,7.722,20.243,7.722,27.965,0L435.647,234.515z"/>
<g>
	<path style="fill:#9DD3EC;" d="M249.11,223.755c-3.35-8.817-9.4-22.055-19.186-35.009c9.787-12.954,15.835-26.192,19.186-35.009
		c1.658-4.362-2.624-8.644-6.986-6.986c-1.945,0.739-4.115,1.618-6.44,2.631l-67.934,67.934c-1.013,2.325-1.892,4.495-2.631,6.44
		c-1.658,4.362,2.624,8.644,6.986,6.986c8.817-3.351,22.055-9.399,35.009-19.186c12.954,9.787,26.192,15.836,35.009,19.186
		C246.486,232.399,250.768,228.117,249.11,223.755z"/>
	<path style="fill:#9DD3EC;" d="M236.449,310.505c9.787-12.954,15.836-26.192,19.186-35.009c1.658-4.362-2.624-8.644-6.986-6.986
		c-8.817,3.35-22.055,9.399-35.009,19.186c-12.954-9.786-26.192-15.835-35.009-19.186c-4.362-1.658-8.644,2.624-6.986,6.986
		c3.35,8.817,9.399,22.055,19.186,35.01c-9.786,12.954-15.835,26.192-19.186,35.009c-1.658,4.362,2.624,8.644,6.986,6.986
		c8.817-3.35,22.055-9.399,35.009-19.186c12.954,9.787,26.192,15.836,35.009,19.186c4.362,1.658,8.644-2.624,6.986-6.986
		C252.285,336.697,246.236,323.46,236.449,310.505z"/>
	<path style="fill:#9DD3EC;" d="M389.105,267.73c1.658-4.362-2.624-8.644-6.986-6.986c-8.817,3.35-22.055,9.399-35.009,19.186
		c-12.954-9.786-26.192-15.835-35.009-19.186c-4.362-1.657-8.644,2.624-6.986,6.986c3.35,8.817,9.399,22.055,19.186,35.01
		c-9.786,12.954-15.835,26.192-19.186,35.009c-1.658,4.362,2.624,8.644,6.986,6.986c6.957-2.644,16.668-6.977,26.819-13.491
		l36.695-36.695C382.128,284.398,386.461,274.687,389.105,267.73z"/>
</g>
<path style="opacity:0.1;enable-background:new    ;" d="M293.099,91.967L244.966,140.1
	c41.105,53.52,89.028,101.443,142.548,142.548l48.133-48.133L293.099,91.967z"/>
<path style="fill:#E883AB;" d="M450.726,284.024L450.726,284.024c-81.589-55.246-151.89-125.548-207.137-207.137l0,0
	c-7.667-11.322-0.836-26.763,12.699-28.706L481.19,15.895c17.813-2.557,33.086,12.716,30.528,30.528l-32.286,224.902
	C477.49,284.86,462.049,291.691,450.726,284.024z"/>
<g>
	<path style="fill:#4A5058;" d="M345.501,91.831c-1.919,0-3.839-0.732-5.304-2.197c-2.929-2.929-2.929-7.678,0-10.606l8.339-8.339
		c2.93-2.929,7.678-2.929,10.608,0c2.929,2.929,2.929,7.678,0,10.606l-8.339,8.339C349.34,91.099,347.42,91.831,345.501,91.831z"/>
	<path style="fill:#4A5058;" d="M443.283,189.613c-1.919,0-3.839-0.732-5.304-2.197c-2.929-2.929-2.929-7.678,0-10.606l8.339-8.339
		c2.93-2.929,7.678-2.929,10.607,0s2.929,7.678,0,10.606l-8.339,8.339C447.122,188.88,445.202,189.613,443.283,189.613z"/>
	<path style="fill:#4A5058;" d="M402.601,154.191c-7.944,7.944-20.932,7.77-28.655-0.522c-7.356-7.898-6.791-20.334,0.841-27.966
		l9.9-9.9c2.12-2.12,5.556-2.12,7.676,0l20.475,20.475c2.12,2.12,2.12,5.556,0,7.676L402.601,154.191z"/>
</g>
<path style="fill:#F5A85B;" d="M43.866,438.182c-8.863,8.863-33.472,20.761-41.312,12.922c-7.84-7.84,4.058-32.448,12.922-41.312
	c8.863-8.863,22.404-9.693,30.243-1.854C53.559,415.778,52.729,429.318,43.866,438.182z"/>
<g>
</g>
<g>
</g>
<g>
</g>
<g>
</g>
<g>
</g>
<g>
</g>
<g>
</g>
<g>
</g>
<g>
</g>
<g>
</g>
<g>
</g>
<g>
</g>
<g>
</g>
<g>
</g>
<g>
</g>
</svg>
