<?xml version="1.0" encoding="iso-8859-1"?>
<!-- Generator: Adobe Illustrator 19.0.0, SVG Export Plug-In . SVG Version: 6.00 Build 0)  -->
<svg version="1.1" id="Capa_1" xmlns="http://www.w3.org/2000/svg" xmlns:xlink="http://www.w3.org/1999/xlink" x="0px" y="0px"
	 viewBox="0 0 512.001 512.001" style="enable-background:new 0 0 512.001 512.001;" xml:space="preserve">
<path style="fill:#5EC08B;" d="M238.181,329.689l18.907-140.984c7.729-57.634-6.497-116.067-39.855-163.698l0,0
	c-18.625-26.594-55.314-32.992-81.84-14.271l0,0c-32.119,22.667-33.274,69.898-2.301,94.107l0,0
	c28.157,22.009,46.713,54.051,51.789,89.427l18.677,130.165L238.181,329.689z"/>
<path style="opacity:0.15;enable-background:new    ;" d="M238.181,329.689l18.907-140.984
	c7.729-57.634-6.497-116.067-39.855-163.698l0,0c-18.625-26.594-55.314-32.992-81.84-14.271l0,0
	c-32.119,22.667-33.274,69.898-2.301,94.107l0,0c28.157,22.009,46.713,54.051,51.789,89.427l18.677,130.165L238.181,329.689z"/>
<path style="fill:#5EC08B;" d="M223.033,349.235l-0.612-189.891c-0.141-43.704,10.295-86.794,30.417-125.59l0,0
	c17.168-33.101,59.305-43.915,90.291-23.172l0,0c34.187,22.885,37.339,71.978,6.36,99.048l0,0
	c-36.067,31.515-61.224,73.646-71.862,120.346l-25.151,110.418L223.033,349.235z"/>
<path style="opacity:0.1;enable-background:new    ;" d="M223.033,349.235l-0.612-189.891
	c-0.141-43.704,10.295-86.794,30.417-125.59l0,0c17.168-33.101,59.305-43.915,90.291-23.172l0,0
	c34.187,22.885,37.339,71.978,6.36,99.048l0,0c-36.067,31.515-61.224,73.646-71.862,120.346l-25.151,110.418L223.033,349.235z"/>
<g>
	<path style="fill:#5EC08B;" d="M290.877,392.262l-63.608-178.921c-14.64-41.18-39.026-78.206-71.077-107.917l0,0
		c-27.345-25.35-70.658-21.285-92.809,8.71l0,0c-24.439,33.093-10.812,80.363,27.493,95.368l0,0
		c44.597,17.47,82.514,48.617,108.31,88.973l60.992,95.418L290.877,392.262z"/>
	<path style="fill:#5EC08B;" d="M207.523,334.809l57.922-129.919c23.679-53.111,66.463-95.375,119.86-118.403l0,0
		c29.813-12.857,64.398,0.959,77.148,30.818l0,0c15.437,36.154-8.375,76.959-47.446,81.304l0,0
		c-35.518,3.95-68.134,21.48-91.026,48.924l-84.23,100.98L207.523,334.809z"/>
</g>
<path style="opacity:0.1;enable-background:new    ;" d="M306.411,214.825c-1.42,0-2.856-0.403-4.129-1.245
	c-3.456-2.284-4.404-6.936-2.12-10.393c13.251-20.041,30.081-37.73,48.672-51.156c20.544-14.836,42.427-24.142,65.041-27.656
	c4.094-0.635,7.927,2.167,8.563,6.259c0.636,4.094-2.166,7.927-6.259,8.564c-38.891,6.045-77.584,33.06-103.504,72.264
	C311.231,213.643,308.845,214.825,306.411,214.825z"/>
<path style="fill:#9B7E73;" d="M425.318,331.159H62.204c-9.616,0-17.412-7.796-17.412-17.412v-43.761
	c0-9.616,7.796-17.412,17.412-17.412h363.114c9.616,0,17.412,7.796,17.412,17.412v43.761
	C442.73,323.363,434.935,331.159,425.318,331.159z"/>
<path style="opacity:0.1;enable-background:new    ;" d="M91.908,313.747v-43.761c0-9.616,7.796-17.412,17.412-17.412H62.204
	c-9.616,0-17.412,7.796-17.412,17.412v43.761c0,9.616,7.796,17.412,17.412,17.412h47.116
	C99.704,331.159,91.908,323.363,91.908,313.747z"/>
<path style="fill:#9B7E73;" d="M401.917,331.159H85.605l21.066,160.505c1.527,11.636,11.445,20.337,23.181,20.337h227.819
	c11.736,0,21.654-8.701,23.181-20.337L401.917,331.159z"/>
<path style="opacity:0.1;enable-background:new    ;" d="M401.917,331.159H85.605l21.066,160.505
	c1.527,11.636,11.445,20.337,23.181,20.337h227.819c11.736,0,21.654-8.701,23.181-20.337L401.917,331.159z"/>
<path style="opacity:0.1;enable-background:new    ;" d="M401.917,331.159H85.605l21.066,160.505
	c1.527,11.636,11.445,20.337,23.181,20.337h48.665c-11.736,0-21.654-8.701-23.181-20.337l-17.474-133.139h260.463L401.917,331.159z"
	/>
<path style="opacity:0.1;enable-background:new    ;" d="M184.86,227.419c-2.669,0-5.252-1.427-6.607-3.94
	c-21.453-39.777-54.485-68.082-78.245-81.308c-3.619-2.014-4.92-6.581-2.905-10.2c2.014-3.62,6.581-4.922,10.201-2.905
	c25.61,14.255,61.165,44.673,84.151,87.292c1.966,3.646,0.605,8.195-3.041,10.162C187.282,227.13,186.063,227.419,184.86,227.419z"
	/>
<path style="opacity:0.1;enable-background:new    ;" d="M269.58,167.9c-0.256,0-0.514-0.014-0.774-0.04
	c-4.121-0.423-7.118-4.105-6.696-8.226c2.224-21.686,21.786-87.238,38.328-109.103c2.499-3.303,7.203-3.955,10.506-1.456
	s3.956,7.203,1.456,10.507c-14.374,18.999-33.323,81.643-35.368,101.581C276.635,165.025,273.377,167.9,269.58,167.9z"/>
<path style="opacity:0.1;enable-background:new    ;" d="M206.022,133.58c-3.381,0-6.449-2.302-7.282-5.732
	c-4.36-17.957-26.768-61.688-39.628-74.278c-2.96-2.898-3.01-7.646-0.112-10.606c2.897-2.96,7.646-3.01,10.606-0.112
	c16.189,15.851,39.078,62.38,43.71,81.458c0.978,4.025-1.493,8.08-5.519,9.058C207.203,133.511,206.607,133.58,206.022,133.58z"/>
<g>
	<path style="fill:#4A5058;" d="M165.582,420.028c-4.142,0-7.5-3.357-7.5-7.5v-12.977c0-4.143,3.358-7.5,7.5-7.5s7.5,3.357,7.5,7.5
		v12.978C173.082,416.671,169.724,420.028,165.582,420.028z"/>
	<path style="fill:#4A5058;" d="M321.941,420.028c-4.142,0-7.5-3.357-7.5-7.5v-12.977c0-4.143,3.358-7.5,7.5-7.5s7.5,3.357,7.5,7.5
		v12.978C329.441,416.671,326.083,420.028,321.941,420.028z"/>
	<path style="fill:#4A5058;" d="M243.761,429.994c-10.066,0-19.639-4.36-26.265-11.962c-2.722-3.122-2.396-7.86,0.726-10.582
		c3.122-2.722,7.86-2.397,10.581,0.727c3.776,4.332,9.228,6.817,14.958,6.817c5.729,0,11.182-2.485,14.958-6.817
		c2.722-3.123,7.46-3.447,10.582-0.727c3.122,2.722,3.448,7.46,0.726,10.582C263.401,425.634,253.828,429.994,243.761,429.994z"/>
</g>
<g>
</g>
<g>
</g>
<g>
</g>
<g>
</g>
<g>
</g>
<g>
</g>
<g>
</g>
<g>
</g>
<g>
</g>
<g>
</g>
<g>
</g>
<g>
</g>
<g>
</g>
<g>
</g>
<g>
</g>
</svg>
