<?xml version="1.0" encoding="utf-8"?>
<!-- Generator: Adobe Illustrator 23.0.3, SVG Export Plug-In . SVG Version: 6.00 Build 0)  -->
<svg version="1.1" id="Layer_1" xmlns="http://www.w3.org/2000/svg" xmlns:xlink="http://www.w3.org/1999/xlink" x="0px" y="0px"
	 viewBox="0 0 512 512" style="enable-background:new 0 0 512 512;" xml:space="preserve">
<style type="text/css">
	.st0{fill:#F6F9FC;}
	.st1{fill:#FFFFFF;}
	.st2{fill:#8EE2CF;}
	.st3{fill:#8EAFE2;}
	.st4{fill:#6A96D7;}
	.st5{fill:#4E5660;}
	.st6{fill:#383C43;}
</style>
<path class="st0" d="M283.3,512H119.5C68.4,512,27,470.6,27,419.6V255.7c0-51.1,41.4-92.4,92.5-92.4h163.9
	c51.1,0,92.4,41.4,92.4,92.4v163.9C375.8,470.6,334.4,512,283.3,512z"/>
<path class="st1" d="M161,163.2h-41.5c-51.1,0-92.5,41.4-92.5,92.4v163.9c0,51.1,41.4,92.4,92.5,92.4h163.9c1.1,0,2.1,0,3.2-0.1
	C174.2,436.1,133.7,275.1,161,163.2z"/>
<path class="st2" d="M314.5,342.9L142.1,170.5c-4.1-4.1-3.5-11.1,1.4-14.3l7.6-5.1c15-10,34.9-8,47.6,4.7l130.5,130.5
	c12.7,12.7,14.7,32.7,4.7,47.6l-5.1,7.6C325.5,346.4,318.6,347.1,314.5,342.9z"/>
<path class="st2" d="M309.9,2.7l172.4,172.4c4.1,4.1,3.5,11.1-1.4,14.3l-7.6,5.1c-15,10-34.9,8-47.6-4.7L295.2,59.3
	c-12.7-12.7-14.7-32.7-4.7-47.6l5.1-7.6C298.8-0.7,305.7-1.4,309.9,2.7z"/>
<path class="st3" d="M299,63.1L421.9,186l-96.5,96.5L202.5,159.6L299,63.1z"/>
<path class="st4" d="M287.6,74.4l-85.2,85.2l122.9,122.9l10.4-10.4C291.9,228.3,271.9,134.4,287.6,74.4z"/>
<path class="st1" d="M269.5,134.4c-8.3-8.3-20.3-9.6-26.9-3s-5.2,18.6,3,26.9c8.3,8.3,20.3,9.6,26.9,3
	C279.1,154.7,277.8,142.7,269.5,134.4z"/>
<path class="st1" d="M350.6,215.5c-8.3-8.3-20.3-9.6-26.9-3c-6.6,6.6-5.2,18.6,3,26.9c8.3,8.3,20.3,9.6,26.9,3
	S358.8,223.8,350.6,215.5z"/>
<g>
	<path class="st5" d="M278.2,150.7c-1.9,0-3.8-0.7-5.3-2.2c-2.9-2.9-2.9-7.7,0-10.6l5.3-5.3c2.9-2.9,7.7-2.9,10.6,0s2.9,7.7,0,10.6
		l-5.3,5.3C282,150,280.1,150.7,278.2,150.7z"/>
	<path class="st5" d="M341.8,214.3c-1.9,0-3.8-0.7-5.3-2.2c-2.9-2.9-2.9-7.7,0-10.6l5.3-5.3c2.9-2.9,7.7-2.9,10.6,0
		c2.9,2.9,2.9,7.7,0,10.6l-5.3,5.3C345.7,213.6,343.7,214.3,341.8,214.3z"/>
	<path class="st5" d="M317.1,191.2c-6.1,0-12.1-2.4-16.4-6.8c-4.7-4.8-7.2-11.3-6.7-18c0.3-4.1,3.9-7.3,8-7c4.1,0.3,7.3,3.9,7,8
		c-0.2,2.4,0.7,4.7,2.4,6.4c1.7,1.7,4,2.5,6.4,2.4c4.1-0.3,7.7,2.8,8,7c0.3,4.1-2.8,7.7-7,8C318.1,191.1,317.6,191.2,317.1,191.2z"
		/>
	<path class="st5" d="M246.6,275L210,238.4L149.4,299c-7.3,7.3-11.8,17-12.6,27.4c-1,12.5,9.4,22.9,21.9,21.9
		c10.3-0.8,20-5.3,27.4-12.6L246.6,275z"/>
	<path class="st5" d="M267,410H135.8c-4.1,0-7.5-3.4-7.5-7.5c0-4.1,3.4-7.5,7.5-7.5H267c4.1,0,7.5,3.4,7.5,7.5
		C274.5,406.6,271.1,410,267,410z"/>
	<path class="st5" d="M252.1,448.9H150.7c-4.1,0-7.5-3.4-7.5-7.5c0-4.1,3.4-7.5,7.5-7.5h101.5c4.1,0,7.5,3.4,7.5,7.5
		C259.6,445.6,256.3,448.9,252.1,448.9z"/>
</g>
<path class="st6" d="M189.8,258.6l20.2-20.2l36.6,36.6l-20.2,20.2L189.8,258.6z"/>
</svg>
