<svg height="512pt" viewBox="-27 0 512 512.001" width="512pt" xmlns="http://www.w3.org/2000/svg"><path d="m256.34375 512h-163.890625c-51.0625 0-92.453125-41.390625-92.453125-92.449219v-163.894531c0-51.058594 41.390625-92.449219 92.453125-92.449219h163.890625c51.058594 0 92.449219 41.390625 92.449219 92.449219v163.894531c0 51.058594-41.390625 92.449219-92.449219 92.449219zm0 0" fill="#fcf2d0"/><path d="m133.988281 163.207031h-41.535156c-51.0625 0-92.453125 41.390625-92.453125 92.449219v163.894531c0 51.058594 41.390625 92.449219 92.453125 92.449219h163.890625c1.074219 0 2.132812-.042969 3.199219-.078125-112.316407-75.78125-152.796875-236.847656-125.554688-348.714844zm0 0" fill="#f6e3a3"/><path d="m287.496094 342.933594-172.417969-172.417969c-4.148437-4.148437-3.464844-11.050781 1.414063-14.3125l7.582031-5.0625c14.957031-9.992187 34.890625-8.027344 47.613281 4.691406l130.492188 130.492188c12.71875 12.722656 14.683593 32.65625 4.691406 47.613281l-5.066406 7.582031c-3.257813 4.878907-10.160157 5.5625-14.308594 1.414063zm0 0" fill="#8ee2cf"/><path d="m282.871094 2.726562 172.417968 172.414063c4.144532 4.148437 3.464844 11.050781-1.414062 14.308594l-7.582031 5.066406c-14.957031 9.992187-34.890625 8.027344-47.613281-4.691406l-130.492188-130.492188c-12.71875-12.722656-14.683594-32.65625-4.691406-47.613281l5.0625-7.582031c3.261718-4.878907 10.164062-5.558594 14.3125-1.410157zm0 0" fill="#8ee2cf"/><path d="m271.964844 63.105469 122.9375 122.9375-96.5 96.503906-122.941406-122.941406zm0 0" fill="#8eafe2"/><path d="m260.640625 74.429688-85.179687 85.179687 122.941406 122.941406 10.414062-10.414062c-43.914062-43.789063-63.90625-137.734375-48.175781-197.707031zm0 0" fill="#6a96d7"/><path d="m242.503906 134.445312c-8.261718-8.261718-20.289062-9.625-26.867187-3.046874-6.578125 6.578124-5.214844 18.605468 3.046875 26.867187 8.257812 8.257813 20.289062 9.621094 26.867187 3.042969 6.574219-6.574219 5.210938-18.605469-3.046875-26.863282zm0 0" fill="#fff"/><path d="m323.566406 215.511719c-8.261718-8.261719-20.289062-9.625-26.867187-3.046875-6.574219 6.578125-5.210938 18.605468 3.046875 26.863281 8.261718 8.261719 20.289062 9.625 26.867187 3.046875s5.214844-18.605469-3.046875-26.863281zm0 0" fill="#fff"/><g fill="#4e5660"><path d="m251.191406 150.6875c-1.917968 0-3.839844-.730469-5.304687-2.195312-2.925781-2.929688-2.925781-7.679688 0-10.605469l5.28125-5.28125c2.929687-2.929688 7.679687-2.929688 10.609375 0 2.929687 2.929687 2.929687 7.675781 0 10.605469l-5.28125 5.28125c-1.464844 1.460937-3.382813 2.195312-5.304688 2.195312zm0 0"/><path d="m314.824219 214.320312c-1.917969 0-3.839844-.730468-5.304688-2.195312-2.929687-2.929688-2.929687-7.679688 0-10.609375l5.28125-5.28125c2.929688-2.925781 7.679688-2.925781 10.609375 0 2.925782 2.929687 2.925782 7.679687 0 10.609375l-5.28125 5.28125c-1.464844 1.464844-3.386718 2.195312-5.304687 2.195312zm0 0"/><path d="m290.078125 191.164062c-6.144531 0-12.058594-2.429687-16.429687-6.800781-4.746094-4.75-7.207032-11.320312-6.746094-18.027343.285156-4.132813 3.875-7.25 7.996094-6.96875 4.132812.285156 7.253906 3.863281 6.96875 7.996093-.164063 2.382813.707031 4.710938 2.390624 6.394531 1.679688 1.679688 3.996094 2.539063 6.390626 2.386719 4.128906-.269531 7.714843 2.835938 7.996093 6.96875.285157 4.132813-2.835937 7.710938-6.96875 7.996094-.53125.035156-1.066406.054687-1.597656.054687zm0 0"/><path d="m219.601562 275.039062-36.628906-36.628906-60.566406 60.5625c-7.328125 7.328125-11.804688 17.027344-12.628906 27.355469-.996094 12.488281 9.417968 22.90625 21.90625 21.90625 10.328125-.824219 20.027344-5.300781 27.355468-12.628906zm0 0"/><path d="m240.003906 409.980469h-131.214844c-4.140624 0-7.5-3.355469-7.5-7.5 0-4.140625 3.359376-7.5 7.5-7.5h131.214844c4.140625 0 7.5 3.359375 7.5 7.5 0 4.144531-3.355468 7.5-7.5 7.5zm0 0"/><path d="m225.136719 448.929688h-101.480469c-4.140625 0-7.5-3.359376-7.5-7.5 0-4.144532 3.359375-7.5 7.5-7.5h101.480469c4.144531 0 7.5 3.355468 7.5 7.5 0 4.140624-3.355469 7.5-7.5 7.5zm0 0"/></g><path d="m162.8125 258.5625 20.15625-20.152344 36.632812 36.628906-20.15625 20.15625zm0 0" fill="#383c43"/></svg>