<?xml version="1.0" encoding="iso-8859-1"?>
<!-- Generator: Adobe Illustrator 19.0.0, SVG Export Plug-In . SVG Version: 6.00 Build 0)  -->
<svg version="1.1" id="Capa_1" xmlns="http://www.w3.org/2000/svg" xmlns:xlink="http://www.w3.org/1999/xlink" x="0px" y="0px"
	 viewBox="0 0 512 512" style="enable-background:new 0 0 512 512;" xml:space="preserve">
<path style="fill:#B2785B;" d="M255.931,512L255.931,512c-9.403,0-17.097-7.693-17.097-17.097V227.491
	c0-9.403,7.693-17.097,17.097-17.097l0,0c9.403,0,17.097,7.693,17.097,17.097v267.411C273.027,504.306,265.333,512,255.931,512z"/>
<path style="fill:#935B45;" d="M255.931,210.395c-9.403,0-17.097,7.693-17.097,17.096v217.274
	c14.121-9.205,25.372-18.976,34.193-28.134V227.491C273.028,218.088,265.333,210.395,255.931,210.395z"/>
<path style="fill:#66D3D0;" d="M256.069,210.256L400.73,354.918c17.172,17.172,46.249,11.279,55.464-11.189
	c13.832-33.726,20.341-82.79-24.786-127.917l-90.447-90.447L256.069,210.256z"/>
<path style="fill:#4DB9C1;" d="M453.806,245.293c-5.37-9.883-12.688-19.772-22.397-29.482l-90.447-90.447l-84.892,84.892
	l36.875,36.875C349.83,223.104,429.093,239.272,453.806,245.293z"/>
<path style="fill:#A0F0F2;" d="M256.069,210.256c0,0,129.742-40.042,175.339,5.555l-90.447-90.447L256.069,210.256z"/>
<path style="fill:#92DD7A;" d="M255.931,210.395L111.27,355.056c-17.172,17.172-11.279,46.249,11.189,55.464
	c33.726,13.832,82.79,20.341,127.917-24.786l90.447-90.447L255.931,210.395z"/>
<path style="fill:#7EC66A;" d="M220.89,408.134c9.883-5.37,19.776-12.691,29.486-22.4l90.447-90.447l-84.892-84.892l-36.875,36.875
	C243.083,304.155,226.912,383.422,220.89,408.134z"/>
<path style="fill:#CBF7B5;" d="M255.931,210.395c0,0,40.042,129.742-5.555,175.339l90.447-90.447L255.931,210.395z"/>
<path style="fill:#FFDE55;" d="M255.931,210.395L111.27,65.734c-17.172-17.173-46.249-11.28-55.464,11.189
	c-13.832,33.726-20.341,82.79,24.786,127.917l90.447,90.447L255.931,210.395z"/>
<path style="fill:#FFCD00;" d="M58.184,175.341c5.37,9.883,12.698,19.79,22.407,29.499l90.447,90.447l84.892-84.892l-36.875-36.875
	C162.17,197.548,82.896,181.362,58.184,175.341z"/>
<path style="fill:#FFEB99;" d="M255.931,210.395c0,0-129.742,40.042-175.339-5.555l90.447,90.447L255.931,210.395z"/>
<path style="fill:#94CBED;" d="M255.931,210.395l144.661-144.66c17.172-17.172,11.279-46.249-11.189-55.464
	c-33.726-13.832-82.79-20.341-127.917,24.786l-90.447,90.447L255.931,210.395z"/>
<path style="fill:#73B7DD;" d="M290.97,12.656c-9.883,5.37-19.775,12.69-29.485,22.399l-90.447,90.447l84.892,84.892l36.875-36.875
	C268.777,116.635,284.949,37.369,290.97,12.656z"/>
<path style="fill:#CAE7FC;" d="M255.931,210.395c0,0-40.042-129.742,5.555-175.339l-90.447,90.447L255.931,210.395z"/>
<circle style="fill:#D6A085;" cx="255.928" cy="210.393" r="31.235"/>
<path style="fill:#C68D6D;" d="M265.079,232.483c-12.197-12.197-12.197-31.972,0-44.169c1.978-1.978,4.157-3.64,6.469-4.976
	c-11.944-6.905-27.481-5.244-37.701,4.976c-12.197,12.196-12.197,31.972,0,44.169c10.219,10.219,25.762,11.871,37.706,4.965
	C269.241,236.112,267.056,234.461,265.079,232.483z"/>
<g>
</g>
<g>
</g>
<g>
</g>
<g>
</g>
<g>
</g>
<g>
</g>
<g>
</g>
<g>
</g>
<g>
</g>
<g>
</g>
<g>
</g>
<g>
</g>
<g>
</g>
<g>
</g>
<g>
</g>
</svg>
